<?xml version="1.0" encoding="UTF-8" standalone="no"?>
<!-- Created with Inkscape (http://www.inkscape.org/) -->

<svg
   width="72"
   height="72"
   viewBox="0 0 72 72"
   version="1.1"
   id="svg1"
   sodipodi:docname="32-1ph110vMale.svg"
   inkscape:version="1.3.2 (091e20e, 2023-11-25)"
   xmlns:inkscape="http://www.inkscape.org/namespaces/inkscape"
   xmlns:sodipodi="http://sodipodi.sourceforge.net/DTD/sodipodi-0.dtd"
   xmlns="http://www.w3.org/2000/svg"
   xmlns:svg="http://www.w3.org/2000/svg">
  <sodipodi:namedview
     id="namedview1"
     pagecolor="#505050"
     bordercolor="#eeeeee"
     borderopacity="1"
     inkscape:showpageshadow="0"
     inkscape:pageopacity="0"
     inkscape:pagecheckerboard="0"
     inkscape:deskcolor="#d1d1d1"
     inkscape:zoom="5.1833333"
     inkscape:cx="31.929261"
     inkscape:cy="55.273312"
     inkscape:window-width="1392"
     inkscape:window-height="1212"
     inkscape:window-x="0"
     inkscape:window-y="30"
     inkscape:window-maximized="0"
     inkscape:current-layer="svg1" />
  <defs
     id="defs1" />
  <g
     id="layer1"
     style="fill:#ffcc00"
     transform="matrix(0.88797733,0,0,0.88797733,-18.848304,-17.708304)">
    <path
       id="path1-8-7-58"
       style="display:inline;fill:#806600;fill-opacity:1;stroke:#ffcc00;stroke-width:1.42798;stroke-dasharray:none;stroke-opacity:1"
       d="m 61.657349,21.745492 a 36.311599,36.310268 0 0 0 -36.310721,36.309312 36.311599,36.310268 0 0 0 32.120895,36.010018 4.3870528,4.386892 0 0 0 -0.195938,1.27495 4.3870528,4.386892 0 0 0 4.386564,4.39057 4.3870528,4.386892 0 0 0 4.390774,-4.39057 4.3870528,4.386892 0 0 0 -0.191972,-1.27495 A 36.311599,36.310268 0 0 0 97.973482,58.054804 36.311599,36.310268 0 0 0 61.658797,21.745492 Z" />
    <circle
       style="display:inline;fill:#ffcc00;fill-opacity:1;stroke:none;stroke-width:1.2777;stroke-dasharray:none;stroke-opacity:1"
       id="path1-8-7-3"
       cx="61.660049"
       cy="57.791985"
       r="32.489864" />
    <circle
       style="fill:#a0892c;fill-opacity:1;stroke:#786721;stroke-width:0.586645;stroke-dasharray:none;stroke-opacity:1"
       id="circle8"
       cx="74.651932"
       cy="42.989735"
       r="5.9702969" />
    <circle
       style="display:inline;fill:#a0892c;fill-opacity:1;stroke:#786721;stroke-width:0.586645;stroke-dasharray:none;stroke-opacity:1"
       id="path1-8-7-5"
       cx="47.684414"
       cy="42.989735"
       r="5.9702969" />
    <circle
       style="fill:#a0892c;fill-opacity:1;stroke:#786721;stroke-width:0.672641;stroke-dasharray:none;stroke-opacity:1"
       id="circle11"
       cx="61.194984"
       cy="79.052826"
       r="6.8454852" />
    <text
       xml:space="preserve"
       style="font-style:normal;font-weight:normal;font-size:13.2812px;line-height:1.25;font-family:sans-serif;fill:#000000;fill-opacity:1;stroke:none;stroke-width:0.332026"
       x="49.213448"
       y="62.058426"
       id="text11"><tspan
         id="tspan11"
         style="fill:#000000;fill-opacity:1;stroke-width:0.332026"
         x="49.213448"
         y="62.058426">32A</tspan></text>
  </g>
</svg>
