<?xml version="1.0" encoding="UTF-8" standalone="no"?>
<!-- Created with Inkscape (http://www.inkscape.org/) -->

<svg
   width="100"
   height="100"
   viewBox="0 0 100 100"
   version="1.1"
   id="svg1"
   sodipodi:docname="63-3ph.svg"
   inkscape:version="1.3.2 (091e20e, 2023-11-25)"
   xmlns:inkscape="http://www.inkscape.org/namespaces/inkscape"
   xmlns:sodipodi="http://sodipodi.sourceforge.net/DTD/sodipodi-0.dtd"
   xmlns="http://www.w3.org/2000/svg"
   xmlns:svg="http://www.w3.org/2000/svg">
  <sodipodi:namedview
     id="namedview1"
     pagecolor="#505050"
     bordercolor="#eeeeee"
     borderopacity="1"
     inkscape:showpageshadow="0"
     inkscape:pageopacity="0"
     inkscape:pagecheckerboard="0"
     inkscape:deskcolor="#d1d1d1"
     inkscape:zoom="4.059438"
     inkscape:cx="46.311829"
     inkscape:cy="63.432426"
     inkscape:window-width="1392"
     inkscape:window-height="1212"
     inkscape:window-x="0"
     inkscape:window-y="30"
     inkscape:window-maximized="0"
     inkscape:current-layer="svg1" />
  <defs
     id="defs1" />
  <g
     id="layer1"
     transform="matrix(0.98290645,0,0,0.98290645,-9.0939001,-9.9336417)">
    <path
       id="path1-8-7-58"
       style="fill:#800000;fill-opacity:1;stroke:#ff0000;stroke-width:1.81363;stroke-dasharray:none;stroke-opacity:1"
       d="m 60.118156,11.452822 a 46.118279,46.116589 0 0 0 -46.117163,46.115374 46.118279,46.116589 0 0 0 40.795791,45.735254 5.5718649,5.5716607 0 0 0 -0.248855,1.61927 5.5718649,5.5716607 0 0 0 5.571244,5.57633 5.5718649,5.5716607 0 0 0 5.576591,-5.57633 5.5718649,5.5716607 0 0 0 -0.243818,-1.61927 A 46.118279,46.116589 0 0 0 106.24219,57.568196 46.118279,46.116589 0 0 0 60.119996,11.452822 Z" />
    <circle
       style="fill:#e30000;fill-opacity:1;stroke:none;stroke-width:1.62277;stroke-dasharray:none;stroke-opacity:1"
       id="path1-8-7-3"
       cx="60.121593"
       cy="57.234398"
       r="41.264408" />
    <circle
       style="fill:#000000;fill-opacity:1;stroke:#000000;stroke-width:0.74508;stroke-dasharray:none;stroke-opacity:1"
       id="path1-8-7-5"
       cx="42.371552"
       cy="38.434505"
       r="7.582696" />
    <circle
       style="fill:#000000;fill-opacity:1;stroke:#000000;stroke-width:0.74508;stroke-dasharray:none;stroke-opacity:1"
       id="circle8"
       cx="76.622192"
       cy="38.434505"
       r="7.582696" />
    <circle
       style="fill:#020200;fill-opacity:1;stroke:#000000;stroke-width:0.74508;stroke-dasharray:none;stroke-opacity:1"
       id="circle9"
       cx="34.399529"
       cy="70.502342"
       r="7.582696" />
    <circle
       style="fill:#000000;fill-opacity:1;stroke:#000000;stroke-width:0.74508;stroke-dasharray:none;stroke-opacity:1"
       id="circle10"
       cx="85.78463"
       cy="70.502342"
       r="7.582696" />
    <circle
       style="fill:#000000;fill-opacity:1;stroke:none;stroke-width:0.854301;stroke-dasharray:none;stroke-opacity:1"
       id="circle11"
       cx="59.530926"
       cy="84.23716"
       r="8.6942463" />
    <text
       xml:space="preserve"
       style="font-style:normal;font-weight:normal;font-size:16.868px;line-height:1.25;font-family:sans-serif;fill:#000000;fill-opacity:1;stroke:none;stroke-width:0.421696"
       x="44.31353"
       y="62.653084"
       id="text11"><tspan
         id="tspan11"
         style="fill:#ffffff;fill-opacity:1;stroke-width:0.421696"
         x="44.31353"
         y="62.653084">63A</tspan></text>
  </g>
</svg>
