<?xml version="1.0" encoding="UTF-8" standalone="no"?>
<!-- Created with Inkscape (http://www.inkscape.org/) -->

<svg
   width="31"
   height="31"
   viewBox="0 0 31 31"
   version="1.1"
   id="svg1"
   sodipodi:docname="powerCON_White.svg"
   xml:space="preserve"
   inkscape:version="1.3.2 (091e20e, 2023-11-25)"
   xmlns:inkscape="http://www.inkscape.org/namespaces/inkscape"
   xmlns:sodipodi="http://sodipodi.sourceforge.net/DTD/sodipodi-0.dtd"
   xmlns="http://www.w3.org/2000/svg"
   xmlns:svg="http://www.w3.org/2000/svg"><sodipodi:namedview
     id="namedview1"
     pagecolor="#505050"
     bordercolor="#eeeeee"
     borderopacity="1"
     inkscape:showpageshadow="0"
     inkscape:pageopacity="0"
     inkscape:pagecheckerboard="0"
     inkscape:deskcolor="#d1d1d1"
     inkscape:zoom="18.450386"
     inkscape:cx="27.804297"
     inkscape:cy="21.923661"
     inkscape:window-width="2560"
     inkscape:window-height="1382"
     inkscape:window-x="1"
     inkscape:window-y="30"
     inkscape:window-maximized="0"
     inkscape:current-layer="svg1" /><defs
     id="defs1" /><circle
     style="fill:#919191;fill-opacity:1;stroke:none;stroke-width:2.92789;stroke-dasharray:none;stroke-opacity:1"
     id="circle34"
     cx="-15.584102"
     cy="15.465473"
     r="15.181444"
     transform="scale(-1,1)" /><circle
     style="fill:#919191;fill-opacity:1;stroke:#d0d0d0;stroke-width:2.22714;stroke-dasharray:none;stroke-opacity:1"
     id="path1-8-7"
     cx="-15.584102"
     cy="15.465473"
     r="11.547971"
     transform="scale(-1,1)" /><path
     id="path36"
     style="fill:#dfdfdf;fill-opacity:1;stroke-width:1.1245"
     d="M 19.283689,4.4572271 C 16.349315,3.2930782 14.089842,3.5564464 11.865473,4.4785879 l -10e-4,1.2323081 7.418216,0.00242 z"
     sodipodi:nodetypes="ccccc" /><circle
     style="fill:#d0d0d0;fill-opacity:1;stroke:none;stroke-width:0.698083;stroke-dasharray:none;stroke-opacity:1"
     id="path1-8-7-5"
     cx="-15.584102"
     cy="15.465473"
     r="7.1044178"
     transform="scale(-1,1)" /><path
     id="rect33"
     style="fill:#919191;fill-opacity:1;stroke-width:1.65011"
     d="m 27.002517,17.19383 c 0.269116,-1.391596 0.214685,-2.728674 -0.02032,-4.035554 l -2.629819,0.01225 0.02032,4.035559 z"
     sodipodi:nodetypes="ccccc" /><path
     id="rect32"
     style="fill:#919191;fill-opacity:1;stroke-width:1.32579"
     d="M 19.207036,4.6303648 C 16.332773,3.4444271 14.127745,3.6944916 11.962182,4.6269999 l -9.69e-4,2.0766007 7.244854,0.00336 z"
     sodipodi:nodetypes="ccccc" /><path
     id="circle38"
     style="fill:#919191;fill-opacity:1;stroke:none;stroke-width:0.822266;stroke-dasharray:none;stroke-opacity:1"
     d="m 14.892343,7.0151657 v 2.663045 c -0.929629,0.300092 -1.748362,0.7758293 -2.505275,1.3538703 l 0.483786,1.151446 a 4.263561,4.263561 0 0 0 -1.551028,3.280832 4.263561,4.263561 0 0 0 4.264016,4.264024 4.263561,4.263561 0 0 0 4.264016,-4.264024 4.263561,4.263561 0 0 0 -0.04065,-0.588871 l 4.266668,-3.262426 z" /></svg>
