<?xml version="1.0" encoding="UTF-8" standalone="no"?>
<!-- Created with Inkscape (http://www.inkscape.org/) -->

<svg
   width="31"
   height="31"
   viewBox="0 0 31 31"
   version="1.1"
   id="svg1"
   sodipodi:docname="powerCON_True1_Female.svg"
   xml:space="preserve"
   inkscape:version="1.3.2 (091e20e, 2023-11-25)"
   xmlns:inkscape="http://www.inkscape.org/namespaces/inkscape"
   xmlns:sodipodi="http://sodipodi.sourceforge.net/DTD/sodipodi-0.dtd"
   xmlns="http://www.w3.org/2000/svg"
   xmlns:svg="http://www.w3.org/2000/svg"><sodipodi:namedview
     id="namedview1"
     pagecolor="#505050"
     bordercolor="#eeeeee"
     borderopacity="1"
     inkscape:showpageshadow="0"
     inkscape:pageopacity="0"
     inkscape:pagecheckerboard="0"
     inkscape:deskcolor="#d1d1d1"
     inkscape:zoom="28.131319"
     inkscape:cx="24.954393"
     inkscape:cy="14.378992"
     inkscape:window-width="2560"
     inkscape:window-height="1382"
     inkscape:window-x="1"
     inkscape:window-y="30"
     inkscape:window-maximized="0"
     inkscape:current-layer="svg1" /><defs
     id="defs1" /><ellipse
     style="fill:#666666;fill-opacity:1;stroke:none;stroke-width:2.90496;stroke-dasharray:none;stroke-opacity:1"
     id="circle34-7"
     cx="15.523998"
     cy="15.49362"
     rx="15.095865"
     ry="15.029356" /><ellipse
     style="fill:#1a1a1a;fill-opacity:1;stroke:#333333;stroke-width:2.20971;stroke-dasharray:none;stroke-opacity:1"
     id="path1-8-7-7"
     cx="15.523998"
     cy="15.49362"
     rx="11.482873"
     ry="11.432282" /><path
     id="path36-0"
     style="fill:#dfdfdf;fill-opacity:1;stroke-width:1.11569"
     d="m 11.845303,4.5956505 c 2.917833,-1.1524864 5.164569,-0.8917566 7.376399,0.021147 l 0.001,1.2199628 -7.376399,0.0024 z"
     sodipodi:nodetypes="ccccc" /><path
     id="rect33-5"
     style="fill:#333333;fill-opacity:1;stroke-width:1.63719"
     d="M 4.1699862,17.204656 C 3.9023874,15.827001 3.9565121,14.503318 4.1902002,13.209531 l 2.6149811,0.01212 -0.020214,3.995131 z"
     sodipodi:nodetypes="ccccc" /><path
     id="rect33-5-0"
     style="fill:#333333;fill-opacity:1;stroke-width:1.63719"
     d="m 26.740278,13.221734 c 0.267599,1.377654 0.213474,2.701337 -0.02021,3.995125 l -2.614981,-0.01213 0.02021,-3.99513 z"
     sodipodi:nodetypes="ccccc" /><path
     id="rect33-5-0-9"
     style="fill:#333333;fill-opacity:1;stroke-width:1.63719"
     d="m 17.789183,26.750052 c -1.377655,0.267599 -2.701338,0.213474 -3.995125,-0.02021 l 0.01213,-2.614981 3.99513,0.02021 z"
     sodipodi:nodetypes="ccccc" /><path
     id="rect33-5-0-9-7"
     style="fill:#999999;fill-opacity:1;stroke-width:1.02284"
     d="m 9.5976617,13.710968 c 0.4885903,-1.088694 1.0801333,-2.064243 1.7291553,-2.976861 l 1.020606,0.601246 -1.729158,2.976866 z"
     sodipodi:nodetypes="ccccc" /><path
     id="rect33-5-0-9-7-7"
     style="fill:#999999;fill-opacity:1;stroke-width:1.02284"
     d="m 19.301252,10.74204 c 0.698543,0.967479 1.247621,1.967546 1.713461,2.985924 l -1.030999,0.583247 -1.713462,-2.985929 z"
     sodipodi:nodetypes="ccccc" /><path
     id="rect33-5-0-9-7-7-9"
     style="fill:#999999;fill-opacity:1;stroke-width:1.02284"
     d="m 17.466721,22.249427 c -1.187131,0.121218 -2.327754,0.0967 -3.442616,-0.0091 l 0.01039,-1.184494 3.442621,0.0091 z"
     sodipodi:nodetypes="ccccc" /><path
     id="rect32-7"
     style="fill:#1a1a1a;fill-opacity:1;stroke-width:1.31541"
     d="m 11.921524,4.7670537 c 2.858061,-1.1740569 5.050658,-0.9264976 7.204014,-0.00333 l 9.64e-4,2.0557959 -7.204014,0.00333 z"
     sodipodi:nodetypes="ccccc" /></svg>
